<?xml version="1.0" standalone="no"?>
<!DOCTYPE svg PUBLIC "-//W3C//DTD SVG 20010904//EN"
 "http://www.w3.org/TR/2001/REC-SVG-20010904/DTD/svg10.dtd">
<svg version="1.0" xmlns="http://www.w3.org/2000/svg"
 width="512.000000pt" height="512.000000pt" viewBox="0 0 512.000000 512.000000"
 preserveAspectRatio="xMidYMid meet">
<metadata>
Created by potrace 1.11, written by Peter Selinger 2001-2013
</metadata>
<g transform="translate(0.000000,512.000000) scale(0.100000,-0.100000)"
fill="#000000" stroke="none">
<path d="M0 2560 l0 -2560 2560 0 2560 0 0 376 c0 207 -4 373 -9 370 -4 -3 -5
13 0 37 12 63 11 3545 -1 3552 -7 4 -7 13 0 25 6 12 10 161 10 389 l0 371
-2560 0 -2560 0 0 -2560z m4654 2271 c17 -3 -925 -6 -2093 -6 -1167 0 -2112 3
-2099 7 30 8 4153 8 4192 -1z m-4234 -18 c-8 -3 -26 -10 -40 -16 -14 -6 -28
-11 -31 -11 -16 -3 -99 -50 -99 -58 0 -4 -6 -8 -13 -8 -18 0 -121 -111 -153
-166 -16 -27 -39 -78 -52 -114 -15 -40 -21 -52 -18 -30 3 19 24 71 45 115 42
85 109 162 190 217 49 34 146 78 171 77 13 -1 13 -1 0 -6z m4342 -13 c119 -45
239 -153 298 -270 35 -71 65 -165 41 -130 -6 8 -11 22 -11 30 0 9 -16 48 -35
88 -25 52 -55 93 -109 147 -41 41 -80 75 -86 75 -6 0 -23 9 -39 21 -15 11 -34
22 -42 23 -8 2 -25 7 -39 13 -14 6 -32 13 -40 16 -8 3 -10 6 -3 6 7 1 36 -8
65 -19z m-3666 -1389 c-3 -4 -20 -11 -38 -15 -50 -10 -116 -54 -148 -98 -32
-44 -40 -43 -14 0 30 51 115 102 202 121 2 1 1 -3 -2 -8z m61 3 c-3 -3 -12 -4
-19 -1 -8 3 -5 6 6 6 11 1 17 -2 13 -5z m100 0 c-3 -3 -12 -4 -19 -1 -8 3 -5
6 6 6 11 1 17 -2 13 -5z m40 0 c-3 -3 -12 -4 -19 -1 -8 3 -5 6 6 6 11 1 17 -2
13 -5z m120 0 c-3 -3 -12 -4 -19 -1 -8 3 -5 6 6 6 11 1 17 -2 13 -5z m40 0
c-3 -3 -12 -4 -19 -1 -8 3 -5 6 6 6 11 1 17 -2 13 -5z m120 0 c-3 -3 -12 -4
-19 -1 -8 3 -5 6 6 6 11 1 17 -2 13 -5z m126 -1 c-7 -2 -21 -2 -30 0 -10 3 -4
5 12 5 17 0 24 -2 18 -5z m124 1 c-3 -3 -12 -4 -19 -1 -8 3 -5 6 6 6 11 1 17
-2 13 -5z m150 0 c-3 -3 -12 -4 -19 -1 -8 3 -5 6 6 6 11 1 17 -2 13 -5z m1186
-1 c-7 -2 -19 -2 -25 0 -7 3 -2 5 12 5 14 0 19 -2 13 -5z m140 0 c-7 -2 -21
-2 -30 0 -10 3 -4 5 12 5 17 0 24 -2 18 -5z m124 1 c-3 -3 -12 -4 -19 -1 -8 3
-5 6 6 6 11 1 17 -2 13 -5z m150 0 c-3 -3 -12 -4 -19 -1 -8 3 -5 6 6 6 11 1
17 -2 13 -5z m70 0 c-3 -3 -12 -4 -19 -1 -8 3 -5 6 6 6 11 1 17 -2 13 -5z
m136 -1 c-7 -2 -21 -2 -30 0 -10 3 -4 5 12 5 17 0 24 -2 18 -5z m124 1 c-3 -3
-12 -4 -19 -1 -8 3 -5 6 6 6 11 1 17 -2 13 -5z m254 -53 c44 -31 87 -96 94
-142 5 -31 4 -30 -8 8 -8 22 -25 56 -37 73 -28 39 -102 88 -147 96 -18 3 -33
10 -33 15 0 13 92 -22 131 -50z m-2035 25 c70 -32 146 -129 143 -183 0 -13 -3
-11 -8 7 -13 41 -41 90 -52 90 -6 0 -8 4 -5 9 3 4 -3 16 -14 26 -11 10 -20 14
-20 10 0 -5 -6 -1 -12 8 -7 9 -38 26 -68 37 -30 10 -46 19 -35 20 11 0 43 -11
71 -24z m916 9 c-91 -28 -154 -92 -183 -185 -5 -17 -8 -19 -8 -7 -1 27 43 108
76 138 37 35 102 68 133 68 18 0 13 -4 -18 -14z m-2171 -181 c-5 -16 -10 -21
-10 -12 -1 18 10 51 15 45 2 -1 -1 -16 -5 -33z m-8 -675 l2 -635 25 -48 c31
-60 82 -103 152 -127 31 -11 43 -18 30 -19 -54 0 -141 58 -180 122 -42 68 -43
97 -43 677 0 686 0 675 6 669 3 -3 6 -290 8 -639z m3407 526 c1 -60 1 -136 1
-167 l-1 -58 -217 2 -218 3 213 2 213 3 -1 138 c-2 167 -1 197 4 191 2 -2 5
-53 6 -114z m-1423 -823 c-1 -169 -2 -28 -2 313 0 341 1 479 2 307 2 -172 2
-451 0 -620z m-571 611 c-4 -10 -52 -13 -218 -11 l-213 3 213 2 212 3 2 158 2
157 3 -150 c2 -82 1 -155 -1 -162z m-903 130 c-7 -2 -21 -2 -30 0 -10 3 -4 5
12 5 17 0 24 -2 18 -5z m124 1 c-3 -3 -12 -4 -19 -1 -8 3 -5 6 6 6 11 1 17 -2
13 -5z m70 0 c-3 -3 -12 -4 -19 -1 -8 3 -5 6 6 6 11 1 17 -2 13 -5z m150 0
c-3 -3 -12 -4 -19 -1 -8 3 -5 6 6 6 11 1 17 -2 13 -5z m106 -1 c-7 -2 -21 -2
-30 0 -10 3 -4 5 12 5 17 0 24 -2 18 -5z m1514 1 c-3 -3 -12 -4 -19 -1 -8 3
-5 6 6 6 11 1 17 -2 13 -5z m116 -1 c-7 -2 -21 -2 -30 0 -10 3 -4 5 12 5 17 0
24 -2 18 -5z m114 1 c-3 -3 -12 -4 -19 -1 -8 3 -5 6 6 6 11 1 17 -2 13 -5z
m120 0 c-3 -3 -12 -4 -19 -1 -8 3 -5 6 6 6 11 1 17 -2 13 -5z m40 0 c-3 -3
-12 -4 -19 -1 -8 3 -5 6 6 6 11 1 17 -2 13 -5z m-1452 -877 l1 -167 -3 165 -3
165 -210 3 -210 3 212 -1 213 0 0 -168z m1996 121 c2 -142 -3 -287 -12 -322
-15 -54 -76 -146 -98 -146 -6 0 -11 -4 -11 -10 0 -5 -7 -10 -15 -10 -8 0 -15
-4 -15 -8 0 -5 -6 -9 -12 -9 -7 -1 -29 -4 -48 -8 -25 -4 -21 -1 17 13 28 10
67 31 87 45 33 25 46 44 77 107 8 16 14 89 17 207 l3 183 -213 3 -213 2 218 3
217 2 1 -52z m-2888 -95 c-7 -2 -21 -2 -30 0 -10 3 -4 5 12 5 17 0 24 -2 18
-5z m124 1 c-3 -3 -12 -4 -19 -1 -8 3 -5 6 6 6 11 1 17 -2 13 -5z m150 0 c-3
-3 -12 -4 -19 -1 -8 3 -5 6 6 6 11 1 17 -2 13 -5z m70 0 c-3 -3 -12 -4 -19 -1
-8 3 -5 6 6 6 11 1 17 -2 13 -5z m120 0 c-3 -3 -12 -4 -19 -1 -8 3 -5 6 6 6
11 1 17 -2 13 -5z m1480 0 c-3 -3 -12 -4 -19 -1 -8 3 -5 6 6 6 11 1 17 -2 13
-5z m76 -1 c-7 -2 -19 -2 -25 0 -7 3 -2 5 12 5 14 0 19 -2 13 -5z m80 0 c-7
-2 -19 -2 -25 0 -7 3 -2 5 12 5 14 0 19 -2 13 -5z m54 1 c-3 -3 -12 -4 -19 -1
-8 3 -5 6 6 6 11 1 17 -2 13 -5z m120 0 c-3 -3 -12 -4 -19 -1 -8 3 -5 6 6 6
11 1 17 -2 13 -5z m40 0 c-3 -3 -12 -4 -19 -1 -8 3 -5 6 6 6 11 1 17 -2 13 -5z
m120 0 c-3 -3 -12 -4 -19 -1 -8 3 -5 6 6 6 11 1 17 -2 13 -5z m-1566 -276
c-20 -48 -87 -112 -140 -134 -51 -22 -34 -1 22 26 56 28 113 98 125 155 3 16
8 23 9 14 2 -8 -5 -36 -16 -61z m648 -31 c28 -45 71 -76 136 -99 27 -10 43
-17 34 -18 -42 -1 -123 42 -161 85 -23 27 -58 101 -58 122 1 10 7 2 14 -18 7
-20 23 -53 35 -72z m-829 -111 c0 -11 -19 -15 -25 -6 -3 5 1 10 9 10 9 0 16
-2 16 -4z m-897 -13 c-7 -2 -19 -2 -25 0 -7 3 -2 5 12 5 14 0 19 -2 13 -5z
m114 1 c-3 -3 -12 -4 -19 -1 -8 3 -5 6 6 6 11 1 17 -2 13 -5z m40 0 c-3 -3
-12 -4 -19 -1 -8 3 -5 6 6 6 11 1 17 -2 13 -5z m120 0 c-3 -3 -12 -4 -19 -1
-8 3 -5 6 6 6 11 1 17 -2 13 -5z m40 0 c-3 -3 -12 -4 -19 -1 -8 3 -5 6 6 6 11
1 17 -2 13 -5z m120 0 c-3 -3 -12 -4 -19 -1 -8 3 -5 6 6 6 11 1 17 -2 13 -5z
m86 -1 c-7 -2 -21 -2 -30 0 -10 3 -4 5 12 5 17 0 24 -2 18 -5z m124 1 c-3 -3
-12 -4 -19 -1 -8 3 -5 6 6 6 11 1 17 -2 13 -5z m70 0 c-3 -3 -12 -4 -19 -1 -8
3 -5 6 6 6 11 1 17 -2 13 -5z m1406 -1 c-7 -2 -21 -2 -30 0 -10 3 -4 5 12 5
17 0 24 -2 18 -5z m124 1 c-3 -3 -12 -4 -19 -1 -8 3 -5 6 6 6 11 1 17 -2 13
-5z m70 0 c-3 -3 -12 -4 -19 -1 -8 3 -5 6 6 6 11 1 17 -2 13 -5z m150 0 c-3
-3 -12 -4 -19 -1 -8 3 -5 6 6 6 11 1 17 -2 13 -5z m136 -1 c-7 -2 -21 -2 -30
0 -10 3 -4 5 12 5 17 0 24 -2 18 -5z m124 1 c-3 -3 -12 -4 -19 -1 -8 3 -5 6 6
6 11 1 17 -2 13 -5z m70 0 c-3 -3 -12 -4 -19 -1 -8 3 -5 6 6 6 11 1 17 -2 13
-5z m-3877 -1148 c71 -117 199 -211 336 -246 76 -20 110 -20 2168 -18 1149 2
2077 0 2060 -3 -16 -4 -956 -7 -2090 -8 -1996 -1 -2063 0 -2135 18 -41 11 -81
21 -89 23 -8 1 -17 5 -20 8 -3 3 -30 21 -60 42 -92 61 -155 131 -200 221 -22
45 -42 98 -45 117 -4 22 3 11 17 -30 13 -36 39 -92 58 -124z m5015 147 c-38
-158 -186 -325 -338 -381 -85 -32 -94 -26 -10 7 85 33 155 83 218 153 44 49
106 163 120 221 4 15 9 27 12 27 3 0 2 -12 -2 -27z"/>
</g>
</svg>
